<?xml version="1.0" encoding="utf-8"?>
<!-- Svg Vector Icons : http://www.onlinewebfonts.com/icon -->
<!DOCTYPE svg PUBLIC "-//W3C//DTD SVG 1.1//EN" "http://www.w3.org/Graphics/SVG/1.1/DTD/svg11.dtd">
<svg version="1.1" xmlns="http://www.w3.org/2000/svg" xmlns:xlink="http://www.w3.org/1999/xlink" x="0px" y="0px" viewBox="0 0 256 256" enable-background="new 0 0 256 256" xml:space="preserve">
<metadata> Svg Vector Icons : http://www.onlinewebfonts.com/icon </metadata>
<g><g><g><path fill="#000000" d="M119.8,10.6c-11.1,1.7-21.7,7.2-30,15.5c-9.6,9.6-14.4,21.1-15,35.2L74.5,68h-8c-7.2,0-8.3,0.1-11.1,1.1c-7.6,2.7-13.6,9.2-15.6,16.9c-1,4-1.1,137.7,0,141.6c2.3,8.7,9.9,16,18.4,17.8c3.5,0.8,136.2,0.8,139.7,0c8.8-1.8,16.8-9.8,18.6-18.6c0.4-1.7,0.5-22.6,0.5-70.2c0-73.1,0.1-70.2-2.4-75.2c-2.8-5.6-8.1-10.3-13.9-12.3c-2.8-1-3.9-1.1-11.1-1.1h-8l-0.3-6.7c-0.3-7.3-1.3-12.3-3.7-18c-6.8-17-23.2-29.9-41.6-32.6C130.7,9.8,125,9.8,119.8,10.6z M139.5,18.8c16.5,4.1,28.8,16,32.8,31.8c0.9,3.6,1.2,5.9,1.3,10.9l0.1,6.3H128H82.4l0-5.9c0-6.6,0.9-11.5,3-16.5c6.1-15.2,19.2-25.1,36.8-27.7C125.4,17.2,135.9,17.9,139.5,18.8z M200.8,76.9c3.1,1.5,5.7,4.3,7.3,7.5l1.2,2.6l0.1,68.8c0.1,67.4,0.1,68.9-0.8,71.9c-1.5,5-5.1,8.5-10.4,10c-2.2,0.7-9.8,0.7-70.3,0.7c-66.5,0-67.8,0-70.8-0.9c-3.9-1.2-7.3-4.1-9.1-7.9l-1.3-2.7l-0.1-69c-0.1-76-0.3-71.5,2.8-76.1c1.6-2.5,4.4-4.5,7.4-5.6c1.9-0.7,9.3-0.7,71.9-0.7l69.8,0.1L200.8,76.9z"/></g></g></g>
</svg>